<svg xmlns="http://www.w3.org/2000/svg" width="80" height="80" viewBox="0 0 80 80">
    <g fill="none" fill-rule="evenodd">
        <path fill="#00D563" d="M17.032 0h45.936C72.375 0 80 7.625 80 17.032v45.936C80 72.375 72.375 80 62.968 80H17.032C7.625 80 0 72.375 0 62.968V17.032C0 7.625 7.625 0 17.032 0z"/>
        <path fill="#FFF" fill-rule="nonzero" d="M21.42 30.217h3.263c.346 0 .625.28.625.625v26.401c0 .346-.28.625-.625.625H21.42a.625.625 0 0 1-.625-.625V47.47h-.04c-1.45 1.773-3.546 2.74-6.245 2.74C9.07 50.21 5 46.22 5 40.134c0-5.926 4.07-10.198 9.47-10.198 2.618 0 4.794.927 6.285 2.7h.04v-1.793c0-.345.28-.625.625-.625zM15.227 46.09c3.173 0 5.703-2.376 5.703-5.919 0-3.503-2.33-6.16-5.703-6.16-3.132 0-5.622 2.375-5.622 6.16 0 3.463 2.29 5.919 5.622 5.919zm27.784-15.779h3.262c.346 0 .625.28.625.625v18.36c0 .345-.28.625-.625.625h-3.262a.625.625 0 0 1-.625-.625V47.35c-1.571 1.889-3.787 2.893-6.083 2.893-4.351 0-7.373-2.17-7.373-7.996v-11.31c0-.345.28-.625.625-.625h3.262c.346 0 .625.28.625.625v10.104c0 3.898 1.21 5.104 3.908 5.104 2.619 0 5.036-2.21 5.036-6.43v-8.778c0-.345.28-.625.625-.625zm7.51 18.929V30.86c0-.344.279-.624.624-.624h3.28c.345 0 .625.28.625.625V49.24c0 .345-.28.625-.625.625h-3.28a.625.625 0 0 1-.625-.625zm0-23.227v-3.28c0-.345.279-.625.624-.625h3.28c.345 0 .625.28.625.625v3.28c0 .345-.28.625-.625.625h-3.28a.625.625 0 0 1-.625-.625zm23.714 7.492L64.06 46.004v.04h9.528c.345 0 .625.28.625.626v2.57c0 .346-.28.626-.625.626h-14.97a.625.625 0 0 1-.626-.625V46.91c0-.144.05-.283.14-.394l10.014-12.337v-.121h-8.841a.625.625 0 0 1-.625-.625v-2.571c0-.345.28-.625.625-.625H73.75c.345 0 .625.28.625.625v2.25c0 .143-.05.283-.14.394z"/>
    </g>
</svg>
